<?xml version="1.0" encoding="utf-8"?>
<!-- Generator: Adobe Illustrator 15.0.0, SVG Export Plug-In . SVG Version: 6.00 Build 0)  -->
<!DOCTYPE svg PUBLIC "-//W3C//DTD SVG 1.1//EN" "http://www.w3.org/Graphics/SVG/1.1/DTD/svg11.dtd">
<svg version="1.1" id="Layer_1" xmlns="http://www.w3.org/2000/svg" xmlns:xlink="http://www.w3.org/1999/xlink" x="0px" y="0px"
	 width="64px" height="64px" viewBox="0 0 64 64" enable-background="new 0 0 64 64" xml:space="preserve">
<g>
	<ellipse fill="#D93D3D" cx="31.917" cy="12.986" rx="19.717" ry="10.987"/>
	<ellipse fill="#E2E9ED" cx="31.859" cy="16.799" rx="24.004" ry="10.987"/>
	<path fill="#FF4848" d="M61.834,62H2c0-11.796,13.395-12.917,29.917-12.917C48.438,49.083,61.834,50.204,61.834,62z"/>
	<path fill="#FFFFFF" d="M51.677,50.707c0,1.358-3.707,1.359-4.868,2.504c-0.902,0.89-0.091,4.609-1.544,5.295
		c-1.198,0.566-3.778-2.32-5.27-1.933c-1.319,0.343-2.077,4.142-3.569,4.318c-1.377,0.162-3.026-3.342-4.509-3.342
		c-1.481,0-3.131,3.504-4.508,3.342c-1.493-0.177-2.25-3.976-3.57-4.318c-1.491-0.389-4.074,2.498-5.273,1.931
		c-1.452-0.686-0.639-4.404-1.542-5.294c-1.16-1.144-4.867-1.145-4.867-2.503C12.157,49.348,51.677,49.349,51.677,50.707z"/>
	<g>
		<g>
			<path fill="#FFDD67" d="M54.312,25.913c-13.843-13.868-31.1-13.931-44.918,0l0.085,15.393c0,6.702,6.569,14.047,22.805,14.047
				c15.378,0,22.043-6.004,22.043-14.047L54.312,25.913z"/>
		</g>
	</g>
	<g>
		<g>
			<path fill="#454749" d="M38.323,46.233c0.121,0.141,0.188,0.322,0.188,0.543c0.002,1.504-2.978,3.349-6.651,3.349
				c-3.673,0-6.651-1.832-6.651-3.336c0-0.203,0.058-0.415,0.158-0.556c0,0,2.875,1.297,6.493,1.297
				C35.471,47.53,38.323,46.233,38.323,46.233z"/>
		</g>
	</g>
	<path fill="#8B9FA5" d="M31.911,8.323C4.979,8.323,0.322,29.53,9.534,36.812c0,0,4.616-7.811,14.303-11.559
		c3.188-1.234,5.858-2.427,8.074-3.568c2.217,1.142,4.886,2.334,8.074,3.568c9.687,3.748,14.317,11.559,14.317,11.559
		C63.517,29.53,58.843,8.323,31.911,8.323z"/>
	<g>
		<g>
			<g>
				<path fill="#454749" d="M41.517,48.578c-0.513,0.003-0.997-0.135-1.455-0.328c-0.459-0.191-0.881-0.463-1.269-0.783
					c-0.754-0.646-1.377-1.566-1.414-2.596c0.688,0.736,1.292,1.339,1.985,1.918C40.044,47.379,40.767,47.908,41.517,48.578z"/>
			</g>
		</g>
		<g>
			<g>
				<path fill="#454749" d="M22.202,48.578c0.748-0.67,1.47-1.199,2.151-1.789c0.692-0.579,1.297-1.182,1.987-1.918
					c-0.038,1.029-0.66,1.949-1.413,2.596c-0.389,0.32-0.813,0.592-1.272,0.783C23.199,48.443,22.713,48.581,22.202,48.578z"/>
			</g>
		</g>
	</g>
	<g>
		<g>
			<path fill="#454749" d="M19.282,36.666l-0.297-2.651c0.689-0.077,1.652-0.264,2.767-0.479c5.215-1.012,13.946-2.703,23.381,0.543
				l-0.864,2.523c-8.762-3.015-17.056-1.408-22.011-0.447C21.087,36.381,20.077,36.576,19.282,36.666z"/>
		</g>
		<g>
			<g>
				<ellipse fill="#454749" cx="21.018" cy="35.42" rx="7.958" ry="8.003"/>
			</g>
			<g>
				<ellipse fill="#B4D7EE" cx="21.017" cy="35.42" rx="5.469" ry="5.5"/>
			</g>
		</g>
		<g>
			<g>
				<ellipse fill="#454749" cx="42.816" cy="35.42" rx="7.959" ry="8.003"/>
			</g>
		</g>
		<g>
			<g>
				<ellipse fill="#B4D7EE" cx="42.816" cy="35.42" rx="5.47" ry="5.5"/>
			</g>
		</g>
	</g>
	<g>
		<g>
			<path fill="#FF4848" d="M59.978,26.086c0,13.301,0.729-6.818-28.067-6.818c-28.799,0-28.071,20.119-28.071,6.818
				C3.839,12.781,16.408,7,31.91,7C47.409,7,59.978,12.781,59.978,26.086z"/>
		</g>
	</g>
	<path fill="#FFFFFF" d="M6.792,33.578c0,0-5.978-2.39-4.345-6.208c0.633-1.482,4.311-1.101,5.684-2.005
		c1.739-1.145,3.56-5.567,5.579-6.149c1.159-0.334,3.285,1.892,4.485,1.75c1.871-0.22,4.249-3.936,6.103-4.266
		c2.319-0.414,6.761,2.523,9.114,2.353c1.993-0.146,5.343-3.316,7.327-3.089c2.152,0.246,4.876,4.314,6.905,5.05
		c1.874,0.68,6.489-0.73,7.993,0.546c0.979,0.831,0.292,3.886,1.018,4.93C57.549,27.775,62,28.376,62,29.923
		c0,3.565-5.175,4.029-5.175,4.029s0.874-2.614,0.509-3.108c-0.847-1.146-4.616-1.206-5.25-2.475
		c-0.579-1.16,1.045-3.188,0.118-4.115c-1.375-1.375-4.828,0.906-6.756,0.465c-1.735-0.396-3.917-4.01-5.695-4.142
		c-1.866-0.138-4.727,3.294-6.593,3.415c-1.792,0.115-4.947-2.693-6.721-2.433c-1.971,0.29-4.297,4.672-6.291,4.726
		c-1.634,0.045-4.292-3.287-5.888-2.942c-1.901,0.41-1.7,4.92-3.387,5.858c-1.007,0.56-3.837-0.801-4.649,0
		C5.445,29.969,6.792,33.578,6.792,33.578z"/>
</g>
</svg>
